<svg width="57" height="37" viewBox="0 0 57 37" fill="none" xmlns="http://www.w3.org/2000/svg">
<path d="M26.86 32.672C26.86 33.608 26.548 34.4053 25.924 35.064C25.3 35.688 24.5547 36 23.688 36H3.616C2.71467 36 1.9 35.6707 1.172 35.012C0.478667 34.3187 0.132 33.452 0.132 32.412C0.132 31.8227 0.270667 31.2507 0.548 30.696C0.825334 30.1413 1.20667 29.6733 1.692 29.292C4.916 26.9 7.62 24.8373 9.804 23.104C12.0227 21.3707 13.7907 19.8453 15.108 18.528C16.4253 17.2107 17.3613 16.032 17.916 14.992C18.5053 13.9173 18.8 12.8773 18.8 11.872C18.8 11.1093 18.644 10.4507 18.332 9.896C18.02 9.34133 17.604 8.87333 17.084 8.492C16.564 8.11067 15.9573 7.83333 15.264 7.66C14.6053 7.452 13.912 7.348 13.184 7.348C11.7973 7.348 10.5147 7.53867 9.336 7.92C8.15733 8.26667 7.06533 8.78666 6.06 9.48C5.40133 9.93067 4.69067 10.156 3.928 10.156C3.06133 10.156 2.29867 9.844 1.64 9.22C1.016 8.56133 0.704 7.764 0.704 6.828C0.704 6.308 0.86 5.80533 1.172 5.32C1.588 4.66133 2.22933 4.05467 3.096 3.5C3.99733 2.94533 4.98533 2.47733 6.06 2.096C7.16933 1.68 8.33067 1.368 9.544 1.16C10.7573 0.917331 11.9187 0.795998 13.028 0.795998C14.8653 0.795998 16.5813 1.056 18.176 1.576C19.8053 2.06133 21.2093 2.78933 22.388 3.76C23.6013 4.696 24.5547 5.85733 25.248 7.244C25.9413 8.596 26.288 10.1387 26.288 11.872C26.288 13.3627 25.976 14.8187 25.352 16.24C24.7627 17.6267 23.8787 19.0307 22.7 20.452C21.556 21.8733 20.1173 23.3293 18.384 24.82C16.6507 26.3107 14.6573 27.8707 12.404 29.5H23.688C24.5547 29.5 25.3 29.812 25.924 30.436C26.548 31.06 26.86 31.8053 26.86 32.672ZM56.7917 5.06C56.7917 5.61466 56.6877 6.1 56.4797 6.516L44.4157 34.076C44.1384 34.7693 43.6704 35.324 43.0117 35.74C42.3877 36.1213 41.6944 36.312 40.9317 36.312C39.8224 36.312 38.921 35.948 38.2277 35.22C37.569 34.4573 37.2397 33.608 37.2397 32.672C37.2397 32.2213 37.3437 31.7533 37.5517 31.268L47.8997 7.816H33.3397C32.4384 7.816 31.6757 7.504 31.0517 6.88C30.4277 6.22133 30.1157 5.424 30.1157 4.488C30.1157 3.62133 30.4277 2.876 31.0517 2.252C31.6757 1.628 32.4384 1.316 33.3397 1.316H53.2037C54.105 1.316 54.9197 1.66266 55.6477 2.356C56.4104 3.04933 56.7917 3.95066 56.7917 5.06Z" fill="#558EF7"/>
</svg>
