<svg width="415" height="268" viewBox="0 0 415 268" fill="none" xmlns="http://www.w3.org/2000/svg">
<rect width="415" height="260" rx="40" fill="url(#paint0_linear)"/>
<path d="M49 187.119V187.555H79.3536L79.2346 187C69.1564 187 59.0782 187.079 49 187.119Z" fill="white"/>
<path d="M25.1001 187.957V266.397H103.13V187.72L25.1001 187.957Z" fill="#F2F2F2"/>
<path d="M103.13 266.397L106.075 264.498V189.049L103.13 187.72V266.397Z" fill="#505B75"/>
<path d="M101.611 189.809C101.611 190.378 101.183 190.806 100.613 190.806C100.043 190.806 99.6158 190.331 99.6158 189.809C99.6158 189.239 100.043 188.811 100.613 188.811C101.136 188.764 101.611 189.239 101.611 189.809Z" fill="#C6C6C6"/>
<path d="M28.0446 189.809C28.0446 190.379 27.6172 190.806 27.0473 190.806C26.4774 190.806 26.0499 190.331 26.0499 189.809C26.0499 189.239 26.4774 188.812 27.0473 188.812C27.5697 188.764 28.0446 189.239 28.0446 189.809Z" fill="#C6C6C6"/>
<path d="M45.0944 222.951L37.638 227.32C37.638 227.32 45.4743 243.748 47.0891 251.963C47.0891 251.963 54.5929 234.347 90.5922 199.78L89.1675 198.308C89.1675 198.308 60.3395 219.295 50.366 236.484L45.0944 222.951Z" fill="#26B545"/>
<path d="M75.2995 176.087C75.252 176.087 75.2045 176.087 75.157 176.087C72.8773 175.992 53.5954 176.039 52.5505 176.087C52.5505 176.087 50.5084 176.182 47.6113 176.609C49.8435 182.544 45.7591 184.301 43.8119 184.729V187.91H80.1437L79.3838 183.969C75.9644 182.734 75.2995 178.936 75.2995 176.087Z" fill="#006AB0"/>
<path d="M75.2995 176.893C75.2995 176.608 75.252 176.371 75.252 176.086C75.2046 176.086 75.1571 176.086 75.1096 176.086C72.8299 175.991 53.548 176.039 52.5031 176.086C52.5031 176.086 50.4609 176.181 47.5639 176.608C47.6114 176.656 47.6114 176.751 47.6114 176.798C56.8724 176.798 66.086 176.846 75.2995 176.893Z" fill="white"/>
<path d="M48.2288 179.695C48.2288 179.979 48.2288 180.217 48.1813 180.454C57.4424 180.502 66.7509 180.549 76.012 180.549C75.8695 180.217 75.7745 179.884 75.6795 179.552C66.5135 179.552 57.3474 179.647 48.2288 179.695Z" fill="white"/>
<path d="M78.2916 183.446C67.6533 183.446 57.015 183.446 46.4241 183.541C46.0442 183.826 45.6167 184.063 45.1893 184.253C56.5875 184.3 68.0332 184.3 79.4314 184.3L79.384 184.015C78.9565 183.826 78.5766 183.636 78.2916 183.446Z" fill="white"/>
<g style="mix-blend-mode:multiply">
<path d="M56.16 194.272C58.6296 193.702 60.3868 191.66 57.4898 191.803C54.5927 191.898 53.168 193.797 52.788 193.702C52.5506 193.655 47.3739 190.473 43.147 187.909C40.6299 187.909 38.1603 187.909 35.6432 187.957C40.8199 191.186 50.1759 196.693 50.1759 196.693C50.1759 196.693 49.701 197.833 50.5559 199.305C50.5559 199.305 50.3659 206.095 51.6007 205.81C52.8355 205.525 51.9807 199.115 52.5506 200.255C53.1205 201.394 55.5426 206.285 56.3025 205.05C57.0624 203.816 53.1205 197.88 54.9727 199.305C56.7774 200.729 59.6744 203.531 60.2444 202.201C60.8143 200.872 54.4978 197.406 57.1573 197.88C59.8644 198.355 63.8538 198.735 62.0491 196.931C60.2918 195.079 53.6429 194.889 56.16 194.272Z" fill="#C6C6C6"/>
</g>
<path d="M94.8665 137.626C94.8665 137.626 110.397 139.905 113.864 160.512L110.872 164.548L108.402 158.993L110.112 165.973L105.885 168.584L103.89 162.174L104.84 168.584L98.5234 169.914C98.5234 169.914 98.8084 156.476 95.2465 151.396L94.8665 137.626Z" fill="#E08804"/>
<path opacity="0.3" d="M97.2888 156.524C99.5684 150.921 99.6634 144.558 98.2386 138.623C96.2439 137.816 94.9141 137.626 94.9141 137.626L95.2941 151.443C96.1489 152.725 96.8138 154.529 97.2888 156.524Z" fill="#E08804"/>
<path d="M57.9648 174.425C57.9648 174.425 56.2551 183.161 60.5769 183.731C64.8987 184.301 66.5135 176.656 66.3235 174.425H57.9648Z" fill="#EFCAA6"/>
<path d="M47.5642 176.609C44.3347 177.084 40.0128 177.986 36.2609 179.648C29.0895 182.829 29.9444 184.538 31.6067 185.868C33.2214 187.197 49.3214 196.694 49.3214 196.694C49.3214 196.694 48.8465 197.833 49.7013 199.305C49.7013 199.305 49.5113 206.095 50.7462 205.81C51.981 205.525 51.1261 199.115 51.696 200.255C52.2659 201.394 54.688 206.285 55.4479 205.051C56.2078 203.816 52.2659 197.881 54.1181 199.305C55.9228 200.73 58.8199 203.531 59.3898 202.202C59.9597 200.872 53.6432 197.406 56.3028 197.881C59.0099 198.356 62.9992 198.735 61.1945 196.931C59.3898 195.127 52.7408 194.937 55.2579 194.32C57.7276 193.75 59.4848 191.708 56.5877 191.851C53.6907 191.945 52.2659 193.845 51.886 193.75C51.506 193.655 36.8308 184.633 36.8308 184.633C36.8308 184.633 41.4376 182.544 43.7173 181.927V184.728C45.712 184.253 49.7963 182.544 47.5642 176.609Z" fill="#EFCAA6"/>
<path d="M47.1366 180.787C47.1366 180.787 46.9466 180.93 46.6616 181.072C46.3767 181.215 45.9493 181.405 45.5218 181.547C45.0944 181.689 44.667 181.784 44.3345 181.832C44.0021 181.879 43.7646 181.879 43.7646 181.879C43.7646 181.879 43.9546 181.737 44.2395 181.594C44.5245 181.452 44.9519 181.262 45.3793 181.12C45.8068 180.977 46.2342 180.882 46.5667 180.835C46.8991 180.787 47.1366 180.787 47.1366 180.787Z" fill="#C39368"/>
<path d="M119.23 145.413C119.515 144.558 123.267 139.667 122.317 138.908C121.367 138.148 118.755 143.703 117.995 143.229C117.235 142.754 118.85 134.872 116.95 135.964C115.051 137.008 116.096 143.466 115.146 142.849C114.196 142.184 113.531 134.539 112.059 135.869C110.634 137.198 114.148 144.036 112.724 143.751C111.299 143.466 109.304 142.564 107.832 143.466C106.36 144.321 111.679 144.796 112.154 146.172C112.629 147.502 112.534 148.072 112.534 148.072C112.534 148.072 106.597 159.183 97.4311 165.878C88.455 172.43 77.8641 176.086 75.2995 176.134C75.2995 179.03 76.0119 182.781 79.3839 184.063L78.624 180.075C78.624 180.075 100.281 178.508 116.998 147.739C116.998 147.739 117.853 148.024 118.613 147.17C118.613 147.17 124.359 146.6 124.359 145.46C124.312 144.273 118.945 146.267 119.23 145.413Z" fill="#EFCAA6"/>
<path d="M77.8165 177.037C77.8165 177.037 77.959 177.274 78.1015 177.606C78.244 177.939 78.3865 178.414 78.5289 178.888C78.6239 179.363 78.7189 179.838 78.7664 180.218C78.8139 180.598 78.7664 180.835 78.7664 180.835C78.7664 180.835 78.6239 180.598 78.4814 180.265C78.339 179.933 78.1965 179.458 78.1015 178.983C78.0065 178.508 77.9115 178.034 77.864 177.654C77.8165 177.274 77.8165 177.037 77.8165 177.037Z" fill="#C39368"/>
<g style="mix-blend-mode:multiply">
<path d="M55.9701 183.114C59.4845 183.588 63.0939 183.541 66.6084 182.924C73.5898 181.642 80.1912 178.27 84.893 173C80.3812 174.994 76.6293 176.086 75.252 176.086C75.2045 176.086 75.1571 176.086 75.1096 176.086C74.1597 176.039 70.4078 176.039 66.2284 176.039C66.3234 175.421 66.3234 174.852 66.2759 174.472H57.9173C57.9173 174.472 57.7748 175.089 57.6798 176.039C54.8777 176.039 52.7881 176.086 52.4556 176.086C52.4556 176.086 50.4134 176.181 47.5164 176.608C46.3291 176.798 44.9518 177.036 43.527 177.321C46.519 180.929 51.5058 182.496 55.9701 183.114Z" fill="#D4D4D4"/>
</g>
<path d="M31.6065 138.813C31.6065 138.813 26.7147 136.723 19.3059 142.754C11.897 148.784 9 161.177 9 161.177L11.1372 162.411C11.1372 162.411 15.079 154.197 18.6885 150.778C18.6885 150.778 13.6068 158.375 12.5619 163.931C12.5619 163.931 17.0262 165.64 18.831 165.782C18.831 165.782 20.6832 156.856 22.0605 155.052C22.0605 155.052 20.0658 162.601 20.2557 166.495C20.2557 166.495 24.1501 167.634 27.2371 167.207C27.2371 167.207 26.4298 156.144 31.179 149.211L31.6065 138.813Z" fill="#E08804"/>
<path opacity="0.3" d="M27.997 138.575C27.3321 140.475 26.9046 142.564 26.7147 144.131C26.2872 147.122 26.1448 150.114 26.5722 153.105C26.8572 155.004 27.2371 156.856 27.807 158.66C28.3294 155.526 29.3268 152.013 31.274 149.211L31.6539 138.765C31.6064 138.813 30.2766 138.243 27.997 138.575Z" fill="#E08804"/>
<path d="M97.1935 143.941C94.9139 122.906 72.0224 104.531 46.7089 119.393C46.7089 119.393 31.3213 126.658 28.7093 144.986C26.0972 163.314 35.8806 170.341 40.7724 171.575C40.7724 171.575 32.7936 162.554 35.2157 147.122C35.2157 147.122 41.0573 147.645 49.5585 147.929C50.1284 144.606 51.5532 138.765 55.0676 135.109C55.0676 135.109 51.7431 140.855 51.5532 147.977C54.7352 148.072 58.2496 148.072 61.954 148.024C62.049 145.175 62.5239 140.38 64.5661 136.296C64.5661 136.296 63.5213 142.089 63.5213 147.977C68.8879 147.882 74.5396 147.55 80.0012 146.932C80.0487 144.558 80.0012 140.95 79.2888 137.626C79.2888 137.626 80.9036 141.852 81.8534 146.695C84.6555 146.363 87.3625 145.888 89.9271 145.365C89.9271 145.365 91.2569 156.191 86.5552 167.634C86.6976 167.445 86.7451 167.302 86.7451 167.302C86.7451 167.302 99.2832 163.171 97.1935 143.941Z" fill="#F39F00"/>
<path d="M90.0223 145.413C87.4102 145.935 84.7031 146.41 81.9485 146.742C80.9987 141.899 79.3839 137.673 79.3839 137.673C80.0963 140.997 80.1438 144.653 80.0963 146.98C74.6347 147.597 68.9831 147.929 63.6164 148.024C63.6164 142.136 64.6612 136.344 64.6612 136.344C62.5716 140.427 62.1441 145.223 62.0491 148.072C58.3922 148.119 54.8778 148.119 51.6483 148.024C51.8382 140.902 55.1627 135.157 55.1627 135.157C51.6483 138.813 50.176 144.605 49.6536 147.977C41.1999 147.739 35.3108 147.169 35.3108 147.169C34.9309 149.496 34.8359 151.68 34.8834 153.722C34.9784 157.236 35.5483 160.227 36.3557 162.791C38.1129 168.536 40.915 171.67 40.915 171.67C40.915 171.67 49.4161 181.974 65.6586 179.79C80.1913 177.843 85.7479 169.534 86.7453 167.777C87.5052 165.877 88.1226 164.026 88.5975 162.221C89.3099 159.467 89.7373 156.903 89.9748 154.624C90.4497 149.116 90.0223 145.413 90.0223 145.413Z" fill="#F4D9BF"/>
<path d="M40.8198 129.316C40.2974 129.886 39.775 130.504 39.3001 131.121C38.8252 131.738 38.3502 132.403 37.8753 133.02L37.2104 134.017L36.593 135.014C36.2131 135.679 35.7856 136.391 35.4532 137.104C35.2632 137.436 35.0733 137.816 34.9308 138.148L34.4558 139.24L34.0284 140.332C33.8859 140.712 33.7435 141.092 33.6485 141.472C33.506 141.852 33.411 142.232 33.2685 142.611L32.9836 143.751C32.8886 144.131 32.7936 144.511 32.6986 144.891L32.4612 146.078L32.4137 145.935C32.6036 146.078 32.8411 146.22 33.0786 146.363C33.316 146.505 33.5535 146.6 33.791 146.695C34.0284 146.79 34.2659 146.885 34.5508 146.932C34.7883 147.027 35.0732 147.027 35.3107 147.122C35.0258 147.075 34.7883 147.122 34.5033 147.027C34.2184 146.98 33.9809 146.932 33.7435 146.837C33.506 146.742 33.221 146.647 32.9836 146.552C32.7461 146.457 32.5087 146.315 32.2712 146.173L32.1762 146.125V146.03L32.3662 144.843C32.4137 144.463 32.4612 144.036 32.5561 143.656L32.7936 142.469C32.8886 142.089 33.0311 141.709 33.1261 141.329C33.221 140.95 33.3635 140.57 33.506 140.19L33.9334 139.05L34.4084 137.958C34.5508 137.578 34.7408 137.246 34.9308 136.866C35.1207 136.534 35.3107 136.154 35.5007 135.822C35.6907 135.489 35.9281 135.109 36.1181 134.777L36.783 133.78L37.4954 132.83C37.9703 132.213 38.4927 131.548 39.0626 130.978C39.6325 130.409 40.2024 129.791 40.8198 129.316Z" fill="#CC6809"/>
<path d="M87.4103 129.316C87.6477 129.554 87.8852 129.839 88.0752 130.076C88.2651 130.361 88.4551 130.646 88.6451 130.931C89.025 131.501 89.31 132.118 89.6424 132.735L90.0698 133.637C90.2123 133.97 90.3548 134.255 90.4973 134.587C90.6398 134.919 90.7347 135.204 90.8772 135.537C91.0197 135.869 91.1147 136.201 91.2097 136.534C91.3047 136.866 91.4471 137.198 91.4946 137.531L91.7796 138.528L92.017 139.525C92.112 139.857 92.1595 140.19 92.207 140.522L92.3495 141.519L92.4445 142.564C92.492 143.229 92.492 143.941 92.492 144.606V144.701L92.397 144.748C91.6371 144.938 90.8297 145.175 90.0698 145.365C90.8297 145.033 91.5421 144.748 92.302 144.463L92.207 144.606C92.1595 143.941 92.112 143.276 92.017 142.611L91.8746 141.614L91.6846 140.617C91.6371 140.285 91.5421 139.952 91.4946 139.62L91.2572 138.623L90.9722 137.626C90.8772 137.293 90.7822 136.961 90.6872 136.676C90.5923 136.344 90.4973 136.011 90.3548 135.727C90.2598 135.394 90.1648 135.062 90.0224 134.777C89.7849 134.16 89.5474 133.495 89.2625 132.878C88.9775 132.26 88.6926 131.643 88.4076 131.026C88.2651 130.741 88.1227 130.409 87.9327 130.124C87.7427 129.839 87.6477 129.554 87.4103 129.316Z" fill="#CC6809"/>
<path d="M68.983 152.345C68.983 152.345 70.2178 150.256 71.6425 150.636C73.0673 151.016 73.5897 152.345 73.7797 152.915C74.0172 153.485 72.07 150.826 68.983 152.345Z" fill="#CC6809"/>
<path d="M47.3738 153.057C47.3738 153.057 48.6086 150.968 50.0334 151.348C51.4582 151.728 51.9806 153.057 52.1705 153.627C52.408 154.197 50.4608 151.538 47.3738 153.057Z" fill="#CC6809"/>
<path d="M52.028 169.106C52.028 169.106 60.9091 175.089 71.8799 168.679C71.8799 168.679 69.8377 176.941 61.9064 177.131C53.9277 177.321 52.028 169.106 52.028 169.106Z" fill="white"/>
<path d="M60.8141 163.124C60.8141 163.124 60.7192 163.124 60.5767 163.124C60.4342 163.124 60.1967 163.124 59.9593 163.171C59.8643 163.219 59.7218 163.266 59.6268 163.314C59.5318 163.409 59.4843 163.503 59.3894 163.598C59.3894 163.646 59.3419 163.741 59.3419 163.788C59.3419 163.883 59.2944 163.978 59.3419 164.026C59.3419 164.121 59.3894 164.263 59.4843 164.406C59.5793 164.548 59.6743 164.643 59.7693 164.786C59.8643 164.88 60.0068 165.023 60.1492 165.118C60.2917 165.213 60.3867 165.308 60.5292 165.403C60.6717 165.498 60.7666 165.545 60.9091 165.64C61.1466 165.783 61.3366 165.878 61.479 165.925C61.6215 165.973 61.7165 165.973 61.7165 165.973C61.7165 165.973 61.6215 166.02 61.479 166.02C61.2891 166.02 61.0516 166.02 60.7666 165.925C60.4817 165.83 60.1492 165.735 59.8643 165.545C59.7218 165.45 59.5318 165.355 59.3894 165.213C59.2469 165.07 59.1044 164.928 59.0094 164.738C58.9144 164.548 58.8194 164.358 58.8194 164.073C58.8194 163.931 58.8669 163.883 58.8669 163.788C58.9144 163.646 58.9619 163.598 59.0094 163.456C59.1044 163.266 59.2944 163.124 59.4368 163.029C59.6268 162.934 59.7693 162.886 59.9593 162.886C60.2917 162.886 60.4817 162.981 60.6717 163.029C60.7666 163.076 60.8141 163.124 60.8141 163.124Z" fill="#C39368"/>
<path d="M31.9862 153.77C28.7092 155.052 30.039 162.506 36.2605 162.696C35.4532 160.18 34.8833 157.141 34.7883 153.627C34.1234 153.39 33.221 153.295 31.9862 153.77Z" fill="#EFCAA6"/>
<path d="M92.9665 153.769C91.6842 153.532 90.6394 153.912 89.8795 154.482C89.642 156.761 89.2146 159.372 88.5022 162.079C89.4046 162.079 90.4494 161.936 91.6367 161.556C95.5311 160.464 96.101 154.434 92.9665 153.769Z" fill="#EFCAA6"/>
<path d="M31.6062 157.188C31.6062 157.188 31.9387 157.093 32.4611 157.141C32.6986 157.141 33.031 157.188 33.316 157.283C33.6009 157.378 33.9334 157.521 34.2183 157.711C34.5033 157.901 34.7882 158.138 34.9782 158.375C35.0732 158.518 35.1682 158.613 35.2632 158.755C35.3582 158.898 35.4056 158.993 35.4531 159.135C35.5481 159.373 35.5956 159.61 35.5956 159.752C35.5956 159.895 35.5956 159.99 35.5956 159.99C35.5956 159.99 35.5481 159.942 35.4531 159.8C35.4056 159.752 35.3581 159.657 35.3107 159.562C35.2632 159.468 35.1682 159.42 35.1207 159.278C35.0732 159.183 34.9782 159.088 34.8832 158.993C34.7882 158.898 34.6933 158.803 34.5983 158.708C34.5033 158.613 34.3608 158.518 34.2658 158.423C34.1708 158.328 34.0284 158.233 33.8859 158.185C33.7434 158.091 33.6484 158.043 33.5059 157.948C33.3635 157.901 33.221 157.806 33.126 157.758C32.8411 157.616 32.6036 157.521 32.3661 157.426C31.8912 157.283 31.6062 157.188 31.6062 157.188Z" fill="#C39368"/>
<path d="M92.8717 157.9C92.8717 157.9 92.5867 157.805 92.1593 157.805C92.0643 157.805 91.9218 157.805 91.8268 157.853C91.7318 157.853 91.5894 157.9 91.4944 157.948C91.2569 158.043 91.0195 158.138 90.782 158.28C90.687 158.328 90.5445 158.423 90.4496 158.518C90.3546 158.613 90.2121 158.708 90.1646 158.803C90.0696 158.897 89.9746 158.992 89.8796 159.087C89.7847 159.182 89.6897 159.277 89.6422 159.325C89.4997 159.467 89.3572 159.61 89.2622 159.705C89.1673 159.8 89.1198 159.847 89.1198 159.847C89.1198 159.847 89.1198 159.752 89.1672 159.657C89.1672 159.61 89.2147 159.515 89.2622 159.42C89.3097 159.325 89.3097 159.23 89.4047 159.135C89.4997 158.945 89.6422 158.66 89.8322 158.47C89.9271 158.375 90.0221 158.233 90.1646 158.138C90.2596 158.043 90.4021 157.9 90.5445 157.853C90.687 157.758 90.8295 157.71 90.972 157.615C91.1145 157.568 91.3044 157.52 91.4469 157.473C91.5894 157.473 91.7793 157.426 91.9218 157.473C92.0643 157.473 92.2068 157.52 92.3018 157.568C92.6817 157.663 92.8717 157.9 92.8717 157.9Z" fill="#C39368"/>
<path d="M53.2154 160.417C53.3104 162.174 52.7405 163.598 51.9331 163.646C51.1732 163.693 50.4608 162.269 50.4134 160.512C50.3184 158.755 50.8883 157.331 51.6957 157.283C52.4555 157.283 53.1679 158.66 53.2154 160.417Z" fill="#673121"/>
<path d="M51.6007 159.182C51.6007 159.705 51.3632 160.132 51.1257 160.132C50.8883 160.132 50.6983 159.705 50.7458 159.135C50.7458 158.613 50.9833 158.185 51.2207 158.185C51.4582 158.185 51.6007 158.66 51.6007 159.182Z" fill="white"/>
<path d="M72.9247 159.087C73.0197 160.844 72.4498 162.269 71.6424 162.316C70.8825 162.364 70.1702 160.939 70.1227 159.182C70.0277 157.425 70.5976 156.001 71.4049 155.953C72.1648 155.953 72.8297 157.33 72.9247 159.087Z" fill="#673121"/>
<path d="M71.2625 157.853C71.2625 158.375 71.0251 158.802 70.7876 158.802C70.5502 158.802 70.4077 158.375 70.4077 157.805C70.4077 157.283 70.6451 156.856 70.8826 156.856C71.1201 156.856 71.2625 157.283 71.2625 157.853Z" fill="white"/>
<path d="M49.8433 165.973C49.8433 166.97 47.8487 167.777 45.4265 167.777C43.0044 167.777 41.0097 166.97 41.0097 165.925C41.0097 164.928 43.0044 164.121 45.4265 164.121C47.8961 164.121 49.8433 164.976 49.8433 165.973Z" fill="#F9CBC0"/>
<path d="M83.1356 164.168C83.1356 165.165 81.1409 165.973 78.7187 165.973C76.2966 165.973 74.3019 165.165 74.3019 164.121C74.3019 163.124 76.2966 162.269 78.7187 162.316C81.1409 162.316 83.1356 163.124 83.1356 164.168Z" fill="#F9CBC0"/>
<path d="M47.8013 147.882C48.3712 147.882 48.9411 147.93 49.5585 147.93C50.1284 144.606 51.5532 138.766 55.0677 135.109C50.8883 137.578 48.6562 144.511 47.8013 147.882Z" fill="#CC6809"/>
<path d="M61.9541 148.025C62.049 145.176 62.524 140.38 64.5661 136.297C61.2892 139.62 60.2918 145.461 60.0069 148.025C60.6717 148.025 61.2892 148.025 61.9541 148.025Z" fill="#CC6809"/>
<path d="M76.0118 147.36C77.3416 147.265 78.7189 147.123 80.0487 146.98C80.0962 144.653 80.0487 141.092 79.3838 137.816C77.959 133.97 76.2018 131.596 76.2018 131.596C78.0065 137.151 76.7242 144.369 76.0118 147.36Z" fill="#CC6809"/>
<path d="M43.7644 186.865V187.909H80.0962L79.8588 186.722C67.8432 186.675 55.78 186.722 43.7644 186.865Z" fill="#D4D4D4"/>
<path d="M150.552 67.2644C150.593 72.71 149.463 78.317 146.719 83.0768C145.711 84.892 144.541 87.393 142.644 88.4821C140.95 89.4502 139.013 89.4098 137.117 89.4502C130.984 89.5712 124.892 88.9661 118.759 88.5224C117.992 90.2973 116.782 91.8301 115.249 93.4839C112.344 96.5496 108.955 98.9699 105.162 100.906C104.476 101.229 103.831 101.592 103.145 101.915C99.554 103.367 95.9631 104.859 92.2916 106.069C89.9111 106.836 87.571 107.32 85.1099 107.683C84.9082 107.723 84.7468 107.763 84.545 107.804C84.7871 107.683 85.0695 107.562 85.3116 107.4C86.6834 106.795 88.1359 106.11 89.3866 105.303C91.2426 104.415 93.0582 103.407 94.7931 102.237C97.4963 100.382 100.24 98.1228 101.813 95.1781C102.661 93.605 103.468 91.8301 103.508 89.9746C103.508 89.4905 103.468 89.0468 103.347 88.6031C97.577 91.3057 91.8074 93.8873 85.5537 95.4202C82.4874 96.1866 79.0579 95.9849 75.8302 95.1781C70.1413 93.7663 61.4264 73.8395 61.0633 70.5318C60.7405 67.4661 61.6281 64.7635 64.291 63.029C67.317 61.0524 70.7061 59.5599 74.0146 58.1885C85.594 53.3883 97.9805 51.1697 110.448 50.3226C121.987 49.5965 134.494 49.6772 145.025 55.1228C146.961 56.0909 149.18 57.2607 149.826 59.5196C150.552 61.9802 150.552 64.6828 150.552 67.2644ZM79.7438 91.9914C78.5737 91.6687 77.5247 91.4671 76.4757 90.7813C75.5881 90.1763 74.6601 88.6434 74.0952 87.756C72.6428 85.3357 71.2306 82.8751 69.8992 80.3339C68.7291 78.1556 67.7205 75.8967 66.6715 73.6781C65.0173 70.1688 63.8068 66.9417 66.5908 63.6341C66.6715 63.513 66.5504 63.3517 66.4294 63.4727C64.6138 65.1669 63.7262 66.7401 63.8875 69.241C64.1296 72.468 66.1873 75.8564 67.5187 78.68C69.1326 82.1087 70.9886 85.3761 73.0059 88.6031C74.6198 91.225 76.4757 92.3545 79.5017 92.5965C79.8245 92.6368 80.0666 92.1125 79.7438 91.9914ZM102.096 85.5374C95.8421 87.7963 89.8708 90.3779 83.375 92.0318C84.6257 91.9511 85.8361 91.8704 87.0465 91.6687C92.3319 90.4183 97.3349 88.3207 102.096 85.5374ZM104.678 85.7794C104.638 85.6988 104.476 85.7794 104.517 85.9005C105.727 89.6115 104.275 93.6453 102.54 96.953C100.563 100.664 96.649 102.802 93.0178 104.496C92.8968 104.577 92.9371 104.778 93.0985 104.738C100.2 102.318 108.874 94.0083 104.678 85.7794Z" fill="#47AD5D"/>
<path d="M92.332 77.5106V71.8229L87.9746 63.6344H91.5654L92.9776 66.9824C93.4214 67.9909 93.7038 68.7169 94.0669 69.6447H94.1073C94.43 68.7976 94.7528 67.9909 95.1563 66.9824L96.5684 63.6344H100.079L95.5194 71.7019V77.4702H92.332V77.5106Z" fill="white"/>
<path d="M109.439 71.6612H104.355V74.9689H110.044V77.5505H101.168V63.634H109.721V66.2156H104.315V69.0796H109.399V71.6612H109.439Z" fill="white"/>
<path d="M112.263 74.2831C113.11 74.7268 114.402 75.1302 115.733 75.1302C117.185 75.1302 117.952 74.5251 117.952 73.6377C117.952 72.7906 117.307 72.2662 115.612 71.7015C113.312 70.8947 111.819 69.6039 111.819 67.6274C111.819 65.2474 113.796 63.4323 117.064 63.4323C118.638 63.4323 119.768 63.755 120.615 64.118L119.929 66.6593C119.364 66.3769 118.396 66.0139 117.024 66.0139C115.652 66.0139 115.007 66.6189 115.007 67.345C115.007 68.2324 115.773 68.6358 117.589 69.2812C120.05 70.1686 121.18 71.4595 121.18 73.436C121.18 75.7756 119.405 77.7521 115.572 77.7521C113.998 77.7521 112.425 77.3488 111.658 76.905L112.263 74.2831Z" fill="white"/>
<path d="M122.834 75.8564C122.834 74.7672 123.601 74.0008 124.69 74.0008C125.779 74.0008 126.505 74.7672 126.505 75.8564C126.505 76.9455 125.779 77.7119 124.69 77.7119C123.56 77.7522 122.834 76.9455 122.834 75.8564ZM123.479 72.952L122.995 63.634H126.263L125.82 72.952H123.479Z" fill="white"/>
<path d="M397.861 275.159L401.229 272.983V186.576L397.861 185.053V275.159Z" fill="#505B75"/>
<path d="M308.616 185.326V275.16H397.861V185.054L308.616 185.326Z" fill="#F2F2F2"/>
<path d="M382.109 210.883L374.015 203.542L354.189 225.565L332.136 199.572L323.499 206.206L348.92 231.384L323.879 259.171L325.781 260.639L353.646 236.006L377.655 259.824L380.751 256.887L359.023 231.275L382.109 210.883Z" fill="#FF1B28"/>
<path d="M396.938 187.826C396.938 188.479 396.449 188.968 395.797 188.968C395.145 188.968 394.656 188.424 394.656 187.826C394.656 187.174 395.145 186.684 395.797 186.684C396.449 186.684 396.938 187.228 396.938 187.826Z" fill="#C6C6C6"/>
<path d="M312.798 187.826C312.798 188.479 312.309 188.968 311.658 188.968C311.006 188.968 310.517 188.425 310.517 187.826C310.517 187.174 311.06 186.684 311.658 186.684C312.255 186.684 312.798 187.228 312.798 187.826Z" fill="#C6C6C6"/>
<path d="M339.686 166.999C339.632 166.945 333.494 162.975 323.662 173.253L329.909 177.875C329.963 177.821 332.842 170.643 339.686 166.999Z" fill="#11B1C8"/>
<path d="M327.573 176.135L329.909 177.875C329.909 177.875 332.733 170.86 339.414 167.163C334.797 169.011 330.941 172.274 327.573 176.135Z" fill="#149DB1"/>
<path d="M369.127 171.132C359.132 168.902 339.686 166.945 339.686 166.945C332.842 170.588 329.963 177.821 329.963 177.821V185.27H372.06V180.376L372.386 180.92C370.811 178.419 369.127 171.132 369.127 171.132Z" fill="#F9CA29"/>
<path d="M329.963 184.238V185.271H372.06V184.129C357.991 184.129 343.977 184.183 329.963 184.238Z" fill="#F6B92B"/>
<path d="M382.706 179.724C382.706 179.724 380.425 174.776 372.82 172.166C371.842 171.839 370.593 171.513 369.127 171.187C369.127 171.187 370.81 178.473 372.386 180.975L374.45 184.292C374.45 184.238 379.936 182.878 382.706 179.724Z" fill="#11B1C8"/>
<path d="M369.561 172.818C370.159 175.102 371.299 179.18 372.386 180.92L374.45 184.237C374.45 184.237 375.373 184.02 376.623 183.531C374.504 179.778 372.603 175.809 369.561 172.818Z" fill="#149DB1"/>
<g style="mix-blend-mode:multiply">
<path d="M371.245 178.473C373.689 177.549 375.971 176.298 378.035 174.83C376.677 173.851 374.939 172.927 372.82 172.165C371.842 171.839 370.593 171.513 369.127 171.187C359.132 168.957 339.686 166.999 339.686 166.999C339.632 166.945 336.264 164.824 330.56 167.815C331.538 169.229 332.625 170.534 333.82 171.785C343.162 181.029 358.86 183.313 371.245 178.473Z" fill="#D4D4D4"/>
</g>
<g style="mix-blend-mode:multiply">
<path d="M352.885 193.482C351.147 193.21 347.888 192.884 347.888 192.884C347.888 192.884 352.777 191.307 353.211 190.436C353.646 189.512 352.614 189.621 351.093 190.11C349.626 190.6 346.965 191.361 346.965 191.361C346.965 191.361 348.431 189.73 348.268 188.588C348.105 187.446 344.629 191.035 344.412 191.198C344.14 191.361 342.782 190.708 341.804 190.872C341.804 190.872 331.158 187.554 326.812 185.271C324.042 185.271 320.674 185.325 317.904 185.379C320.566 188.805 341.37 194.243 341.37 194.243C341.37 194.243 341.859 196.201 344.249 196.853C344.249 196.853 346.15 198.593 346.693 199.844C347.29 201.095 348.974 200.986 348.648 199.844C348.322 198.702 346.856 196.962 346.856 196.962C346.856 196.962 349.409 197.886 350.875 198.92C352.342 200.007 353.483 199.518 352.777 197.832C352.016 196.201 347.779 195.113 347.779 195.113C347.779 195.113 351.907 195.222 353.102 195.276C354.46 195.385 354.623 193.754 352.885 193.482Z" fill="#C6C6C6"/>
</g>
<g style="mix-blend-mode:multiply">
<path d="M377.818 185.107L378.632 187.011L364.673 191.143L362.608 190.165C362.608 190.165 361.794 188.044 360.653 188.044C359.512 188.044 360.544 189.349 361.088 190.491C361.576 191.633 361.902 192.72 361.902 192.72C361.902 192.72 357.72 189.947 356.416 189.566C355.112 189.24 355.493 190.491 356.416 190.98C357.34 191.47 360.218 193.373 360.218 193.373C360.218 193.373 355.601 192.72 355.112 193.373C354.624 194.026 358.915 194.297 359.621 194.352C360.381 194.461 354.461 196.581 355.438 197.234C356.416 197.886 361.631 195.113 361.033 196.255C360.436 197.397 357.72 200.714 359.241 200.388C360.707 200.062 362.717 196.744 362.717 196.744C362.717 196.744 364.944 196.418 365.433 195.004C365.433 195.004 382.706 191.633 383.249 188.261C383.412 187.174 383.249 186.141 382.978 185.162C381.185 185.107 379.501 185.053 377.818 185.107Z" fill="#C6C6C6"/>
</g>
<path d="M347.834 173.253C347.834 173.253 345.77 180.485 351.908 180.377C358.046 180.268 358.209 174.232 358.209 174.232L347.834 173.253Z" fill="#EFCAA6"/>
<path d="M401.229 121.485C403.836 120.016 394.493 119.364 394.493 119.364C394.493 119.364 395.308 116.917 394.493 114.089C393.679 111.316 391.723 117.733 391.723 117.733C384.825 97.9931 350.767 95.4916 337.459 110.5C324.151 125.509 330.561 145.085 330.561 145.085C330.561 145.085 335.504 132.36 346.367 123.551C346.367 123.551 341.967 129.533 343.651 129.859C345.281 130.131 349.572 127.847 368.095 124.747C368.095 124.747 364.347 129.315 366.791 129.859C369.181 130.348 378.415 127.521 378.415 127.521C378.415 127.521 376.134 139.266 379.936 137.418C383.793 135.569 384.988 132.632 384.988 132.632C384.988 132.632 390.311 144.324 387.16 159.06C413.125 135.351 395.851 122.953 395.851 122.953C395.851 122.953 398.567 122.953 401.229 121.485Z" fill="#EC7B23"/>
<path d="M384.879 132.578C384.879 132.578 383.63 135.46 379.827 137.363C375.971 139.212 378.306 127.466 378.306 127.466C378.306 127.466 369.072 130.294 366.682 129.804C364.292 129.315 367.986 124.693 367.986 124.693C349.463 127.792 345.172 130.076 343.543 129.804C341.913 129.532 346.258 123.496 346.258 123.496C335.395 132.251 330.452 145.03 330.452 145.03C330.452 145.03 325.509 153.133 330.289 162.432C336.373 174.177 349.355 177.168 361.685 177.168C377.655 177.168 386.997 159.006 386.997 159.006C390.256 144.269 384.879 132.578 384.879 132.578Z" fill="#F4D9BF"/>
<path d="M333.331 139.266C333.331 139.266 333.982 134.644 329.8 135.133C325.617 135.623 325.237 144.65 330.18 145.629C330.18 145.629 331.864 141.713 333.331 139.266Z" fill="#EFCAA6"/>
<path d="M387.16 158.625C387.16 158.625 389.116 153.948 393.244 155.689C397.372 157.429 393.678 164.009 388.898 165.15C384.118 166.292 384.281 163.465 384.281 163.465L387.16 158.625Z" fill="#EFCAA6"/>
<path d="M353.266 167.434C353.266 167.434 353.103 165.857 351.745 166.619C350.332 167.38 349.137 171.676 350.604 172.057C352.016 172.383 353.211 168.74 353.266 167.434Z" fill="white"/>
<path d="M346.802 135.297C346.802 135.297 347.019 134.97 347.399 134.644C347.834 134.318 348.486 134.046 349.192 133.992C349.518 133.992 349.898 133.992 350.224 134.1C350.55 134.209 350.821 134.372 351.039 134.535C351.147 134.644 351.256 134.699 351.31 134.807C351.364 134.862 351.419 134.97 351.473 135.079C351.527 135.242 351.582 135.297 351.582 135.297C351.582 135.297 351.473 135.297 351.31 135.297C351.147 135.297 350.984 135.297 350.767 135.242C350.55 135.242 350.278 135.242 350.061 135.242C349.789 135.242 349.518 135.297 349.246 135.297C348.703 135.351 348.105 135.351 347.616 135.351C347.182 135.351 346.802 135.297 346.802 135.297Z" fill="#A95A16"/>
<path d="M369.67 139.593C369.67 139.593 370.104 139.266 370.81 139.049C371.517 138.777 372.494 138.668 373.526 138.777C373.798 138.831 374.015 138.886 374.287 138.94C374.558 138.994 374.776 139.103 374.993 139.212C375.21 139.321 375.428 139.484 375.59 139.593C375.753 139.756 375.916 139.919 376.025 140.082C376.134 140.245 376.242 140.408 376.297 140.571C376.405 140.68 376.405 140.843 376.405 140.952C376.46 141.17 376.46 141.278 376.46 141.278C376.46 141.278 376.351 141.224 376.188 141.061C376.079 141.006 376.025 140.898 375.916 140.843C375.808 140.789 375.645 140.68 375.536 140.626C375.373 140.571 375.21 140.517 375.047 140.463C374.884 140.408 374.721 140.354 374.504 140.299C374.287 140.245 374.124 140.191 373.907 140.191C373.689 140.136 373.472 140.082 373.255 140.082C372.82 140.028 372.386 139.973 371.951 139.919C371.517 139.864 371.136 139.81 370.756 139.756C370.213 139.701 369.67 139.593 369.67 139.593Z" fill="#A95A16"/>
<path d="M353.266 155.253C353.266 155.253 350.658 158.244 352.396 159.005C354.135 159.767 356.253 159.005 356.253 159.005C356.253 159.005 353.103 159.549 352.831 157.863C352.559 156.178 353.266 155.253 353.266 155.253Z" fill="#C39368"/>
<path d="M328.008 140.354C328.008 140.354 328.225 140.19 328.659 140.082C328.877 140.027 329.148 139.973 329.42 140.027C329.691 140.027 330.017 140.136 330.289 140.245C330.452 140.299 330.56 140.408 330.669 140.517C330.778 140.626 330.886 140.734 330.995 140.843C331.104 140.952 331.158 141.115 331.212 141.224C331.267 141.332 331.267 141.441 331.321 141.55C331.375 141.767 331.375 141.931 331.375 142.094C331.375 142.202 331.375 142.311 331.375 142.311C331.375 142.311 331.321 142.257 331.267 142.148C331.212 142.094 331.212 142.039 331.158 141.985C331.104 141.931 331.049 141.822 330.995 141.767C330.941 141.713 330.886 141.604 330.832 141.496C330.778 141.441 330.723 141.332 330.615 141.278C330.452 141.115 330.289 141.006 330.072 140.897C329.963 140.843 329.854 140.789 329.746 140.734C329.637 140.734 329.528 140.626 329.42 140.626C329.203 140.571 328.985 140.517 328.768 140.462C328.279 140.408 328.008 140.354 328.008 140.354Z" fill="#C39368"/>
<path d="M391.234 160.746C391.234 160.746 391.18 160.691 391.017 160.637C390.908 160.583 390.691 160.528 390.528 160.42C390.419 160.42 390.311 160.365 390.202 160.365C390.094 160.311 389.931 160.311 389.822 160.311C389.713 160.311 389.55 160.256 389.387 160.256C389.224 160.256 389.116 160.256 388.953 160.311C388.79 160.311 388.681 160.311 388.518 160.365C388.355 160.42 388.247 160.42 388.084 160.42C387.975 160.474 387.812 160.42 387.704 160.474C387.595 160.528 387.486 160.528 387.323 160.583C386.889 160.691 386.509 160.746 386.509 160.746C386.509 160.746 386.726 160.528 387.16 160.256C387.269 160.202 387.378 160.093 387.486 160.039C387.595 159.984 387.758 159.93 387.921 159.876C388.084 159.821 388.247 159.767 388.355 159.713C388.518 159.658 388.681 159.658 388.844 159.658C389.007 159.658 389.17 159.658 389.333 159.658C389.496 159.658 389.659 159.713 389.822 159.767C389.985 159.821 390.148 159.821 390.257 159.93C390.365 159.984 390.528 160.093 390.637 160.148C390.854 160.311 390.963 160.474 391.071 160.583C391.234 160.637 391.234 160.746 391.234 160.746Z" fill="#C39368"/>
<path d="M370.376 150.142C369.724 151.828 368.638 152.97 367.931 152.698C367.225 152.426 367.117 150.849 367.769 149.163C368.42 147.477 369.507 146.335 370.213 146.607C370.919 146.879 370.973 148.456 370.376 150.142Z" fill="#3D1A0B"/>
<path d="M369.289 148.293C369.072 148.782 368.692 149.109 368.475 149C368.257 148.891 368.257 148.402 368.529 147.912C368.746 147.423 369.126 147.097 369.344 147.205C369.561 147.314 369.561 147.804 369.289 148.293Z" fill="white"/>
<path d="M349.246 144.269C348.594 145.955 347.508 147.097 346.802 146.825C346.096 146.553 345.987 144.976 346.639 143.29C347.291 141.604 348.377 140.462 349.083 140.734C349.789 141.006 349.898 142.583 349.246 144.269Z" fill="#3D1A0B"/>
<path d="M348.214 142.42C347.997 142.91 347.617 143.236 347.399 143.127C347.182 143.018 347.182 142.529 347.454 142.04C347.671 141.55 348.051 141.224 348.269 141.333C348.486 141.441 348.486 141.931 348.214 142.42Z" fill="white"/>
<path d="M376.46 159.984C376.242 161.126 373.852 161.616 371.136 161.072C368.421 160.528 366.356 159.169 366.574 158.027C366.791 156.885 369.181 156.395 371.897 156.939C374.667 157.483 376.677 158.842 376.46 159.984Z" fill="#F9CBC0"/>
<path d="M345.444 150.577C345.226 151.719 342.836 152.208 340.121 151.665C337.405 151.121 335.34 149.761 335.558 148.619C335.775 147.477 338.165 146.988 340.881 147.532C343.651 148.13 345.715 149.489 345.444 150.577Z" fill="#F9CBC0"/>
<path d="M324.042 173.525C324.042 173.525 315.677 181.899 317.687 185.325C319.751 188.751 340.935 194.515 340.935 194.515C340.935 194.515 341.424 196.473 343.814 197.125C343.814 197.125 345.715 198.865 346.259 200.116C346.856 201.367 348.54 201.258 348.214 200.116C347.888 198.974 346.422 197.234 346.422 197.234C346.422 197.234 348.975 198.158 350.441 199.192C351.908 200.279 353.048 199.79 352.342 198.104C351.582 196.473 347.345 195.385 347.345 195.385C347.345 195.385 351.473 195.494 352.668 195.548C353.863 195.657 354.026 193.971 352.288 193.754C350.55 193.482 347.291 193.155 347.291 193.155C347.291 193.155 352.179 191.578 352.614 190.708C353.048 189.784 352.016 189.893 350.495 190.382C349.029 190.872 346.367 191.633 346.367 191.633C346.367 191.633 347.834 190.002 347.671 188.86C347.508 187.718 344.032 191.307 343.814 191.47C343.543 191.633 342.185 190.98 341.207 191.143C341.207 191.143 325.237 186.141 324.368 184.237C323.445 182.334 328.225 176.733 328.225 176.733L324.042 173.525Z" fill="#F4D9BF"/>
<path d="M376.568 183.53L378.143 187.228L364.184 191.361L362.119 190.382C362.119 190.382 361.305 188.261 360.164 188.261C359.023 188.261 360.055 189.566 360.599 190.708C361.087 191.85 361.413 192.938 361.413 192.938C361.413 192.938 357.231 190.165 355.927 189.784C354.624 189.458 355.004 190.708 355.927 191.198C356.851 191.687 359.729 193.59 359.729 193.59C359.729 193.59 355.112 192.938 354.624 193.59C354.135 194.243 358.426 194.515 359.132 194.569C359.892 194.678 353.972 196.799 354.949 197.451C355.927 198.104 361.142 195.331 360.544 196.472C359.947 197.614 357.231 200.932 358.752 200.605C360.218 200.279 362.228 196.962 362.228 196.962C362.228 196.962 364.455 196.636 364.944 195.222C364.944 195.222 382.217 191.85 382.761 188.479C383.304 185.107 380.696 181.464 380.696 181.464C380.696 181.464 378.198 182.987 376.568 183.53Z" fill="#F4D9BF"/>
<g opacity="0.4">
<path opacity="0.4" d="M333.331 139.266C335.829 134.807 340.12 128.499 346.313 123.496L349.843 120.397C337.187 126.052 333.331 139.266 333.331 139.266Z" fill="#D7711F"/>
<path opacity="0.4" d="M343.542 129.804C345.172 130.076 349.463 127.792 367.986 124.693C367.986 124.693 367.931 124.747 367.877 124.856C370.321 122.735 373.146 121.158 373.146 121.158C360.273 122.3 343.542 129.804 343.542 129.804Z" fill="#D7711F"/>
<path opacity="0.4" d="M366.03 129.424C366.139 129.641 366.356 129.75 366.682 129.804C369.072 130.294 378.306 127.466 378.306 127.466C378.306 127.466 378.306 127.575 378.252 127.738C379.556 125.508 381.131 123.061 381.131 123.061C372.983 128.826 366.139 129.369 366.03 129.424Z" fill="#D7711F"/>
<path opacity="0.4" d="M383.792 127.357C384.553 134.263 379.012 137.526 378.958 137.526C379.229 137.581 379.501 137.526 379.827 137.363C383.684 135.514 384.879 132.578 384.879 132.578C384.879 132.578 390.147 144.052 387.106 158.625C394.602 143.997 383.792 127.357 383.792 127.357Z" fill="#D7711F"/>
</g>
<path d="M270.37 59.0572C270.984 56.9464 273.131 55.8334 274.932 54.874C284.938 49.6929 296.822 49.6161 307.786 50.3069C319.632 51.0745 331.401 53.2237 342.365 57.7907C345.547 59.134 348.729 60.554 351.604 62.3961C354.134 64.0464 354.978 66.6177 354.671 69.5345C354.326 72.6815 346.084 91.6404 340.64 92.9837C337.535 93.7512 334.315 93.9431 331.401 93.2139C325.459 91.7556 319.977 89.2994 314.495 86.728C314.38 87.1502 314.303 87.5723 314.342 88.0329C314.38 89.7599 315.147 91.4869 315.952 92.9837C317.447 95.7853 320.054 97.9345 322.622 99.6999C324.271 100.813 325.996 101.772 327.759 102.617C328.986 103.384 330.366 104.037 331.631 104.612C331.861 104.727 332.129 104.843 332.359 104.996C332.168 104.958 332.014 104.919 331.823 104.881C329.484 104.536 327.261 104.075 324.999 103.346C321.51 102.194 318.098 100.774 314.687 99.3929C314.035 99.0858 313.383 98.7788 312.77 98.4334C309.166 96.5912 305.946 94.2885 303.186 91.3718C301.691 89.7983 300.579 88.3399 299.851 86.6512C294.024 87.0734 288.235 87.6491 282.408 87.534C280.606 87.4956 278.766 87.534 277.156 86.6129C275.354 85.615 274.242 83.1972 273.284 81.4702C270.677 76.9031 269.604 71.6069 269.642 66.3875C269.719 63.9696 269.68 61.3983 270.37 59.0572ZM337.19 90.5275C340.065 90.2972 341.828 89.2226 343.362 86.728C345.24 83.6577 347.004 80.5491 348.575 77.2869C349.879 74.5621 351.834 71.3383 352.026 68.3064C352.179 65.9269 351.336 64.3918 349.611 62.8183C349.496 62.7032 349.381 62.8567 349.457 62.9718C352.064 66.1188 350.914 69.1891 349.381 72.528C348.384 74.6388 347.425 76.788 346.314 78.8604C345.049 81.2399 343.707 83.581 342.327 85.9221C341.79 86.8048 340.908 88.2631 340.065 88.8004C339.107 89.4529 338.071 89.6448 336.96 89.9518C336.653 90.0669 336.921 90.5658 337.19 90.5275ZM330.021 89.6448C331.171 89.8367 332.321 89.9134 333.509 89.9902C327.376 88.4167 321.664 85.9221 315.722 83.8113C320.245 86.4594 324.999 88.455 330.021 89.6448ZM324.271 102.041C324.424 102.079 324.462 101.887 324.347 101.811C320.897 100.199 317.178 98.1648 315.3 94.6339C313.651 91.4869 312.271 87.6491 313.421 84.1183C313.46 84.0415 313.306 83.9264 313.268 84.0031C309.281 91.8707 317.523 99.7766 324.271 102.041Z" fill="#E66D74"/>
<path d="M293.717 76.5578V63.3557H297.205L299.927 68.1913C300.694 69.5729 301.499 71.2232 302.074 72.72H302.15C301.959 70.9929 301.882 69.1892 301.882 67.2319V63.394H304.604V76.5962H301.46L298.662 71.4919C297.895 70.0719 297.013 68.3832 296.362 66.8481L296.285 66.8865C296.362 68.6135 296.4 70.494 296.4 72.6432V76.6346H293.717V76.5578Z" fill="white"/>
<path d="M319.248 69.8415C319.248 74.1783 316.642 76.788 312.77 76.788C308.859 76.788 306.559 73.8329 306.559 70.0718C306.559 66.1188 309.089 63.1637 312.961 63.1637C317.063 63.1637 319.248 66.1956 319.248 69.8415ZM309.741 69.995C309.741 72.5664 310.968 74.4086 312.961 74.4086C314.993 74.4086 316.143 72.4896 316.143 69.9183C316.143 67.5388 314.993 65.5048 312.961 65.5048C310.93 65.5048 309.741 67.4237 309.741 69.995Z" fill="white"/>
<path d="M320.782 74.9843C320.782 73.9481 321.51 73.2189 322.545 73.2189C323.58 73.2189 324.27 73.9481 324.27 74.9843C324.27 76.0205 323.58 76.7497 322.545 76.7497C321.472 76.7881 320.782 76.0205 320.782 74.9843ZM321.434 72.2211L320.973 63.3557H324.079L323.657 72.2211H321.434Z" fill="white"/>
<defs>
<linearGradient id="paint0_linear" x1="415" y1="0" x2="241.811" y2="372.444" gradientUnits="userSpaceOnUse">
<stop stop-color="#B469F7"/>
<stop offset="1" stop-color="#8F26EE"/>
</linearGradient>
</defs>
</svg>
